<svg xmlns="http://www.w3.org/2000/svg" viewBox="0 0 64 64" width="64" height="64">
<rect width="64" height="64" rx="8" fill="#1D4033"/>
<g transform="translate(13.85,50.20) scale(0.0520,-0.0520)"><path fill="#F2F3EE" d="M261 -16Q218 -16 175.5 -5.0Q133 6 98.5 28.5Q64 51 43.5 86.0Q23 121 23 170Q23 237 67.5 288.5Q112 340 179 365Q143 404 125.5 436.0Q108 468 102.5 496.0Q97 524 97 551Q98 627 150.0 671.5Q202 716 288 716Q341 716 380.0 694.0Q419 672 440.5 636.5Q462 601 462 559Q462 518 441.5 481.5Q421 445 388.0 415.5Q355 386 318 364Q322 360 346.0 335.0Q370 310 406.0 275.0Q442 240 480 205Q483 217 484.0 229.5Q485 242 485 255Q485 283 479.0 299.0Q473 315 461.5 322.5Q450 330 432 331V395H600V320L545 323Q550 311 553.0 295.5Q556 280 556 262Q556 233 551.0 206.0Q546 179 537 154Q541 151 544.5 147.5Q548 144 552 141Q591 108 623.0 87.0Q655 66 675 66V0H568Q560 0 532.5 15.0Q505 30 470 57Q431 23 378.0 3.5Q325 -16 261 -16ZM293 55Q331 55 362.5 67.5Q394 80 418 102Q405 113 393.0 124.5Q381 136 368 147Q310 200 274.5 236.5Q239 273 208 308Q189 293 178.5 272.0Q168 251 163.5 230.5Q159 210 159 195Q159 150 175.0 118.5Q191 87 221.0 71.0Q251 55 293 55ZM273 417Q311 446 330.0 489.5Q349 533 349 564Q349 600 331.5 623.0Q314 646 283 646Q255 646 235.5 623.0Q216 600 216 556Q216 526 232.5 486.5Q249 447 273 417Z"/></g>
</svg>